<svg width="22" height="21" viewBox="0 0 22 21" fill="none" xmlns="http://www.w3.org/2000/svg">
<path d="M10.9374 1.89759C13.8275 1.89759 14.2216 1.89759 15.404 1.89759C16.455 1.89759 16.9805 2.1506 17.3746 2.27711C17.9001 2.53012 18.2942 2.65663 18.6883 3.03615C19.0824 3.41566 19.3451 3.79518 19.4765 4.30121C19.6079 4.68072 19.7393 5.18675 19.8706 6.1988C19.8706 7.33735 19.8706 7.59036 19.8706 10.5C19.8706 13.4096 19.8706 13.6627 19.8706 14.8012C19.8706 14.9646 19.8638 15.1149 19.8517 15.2535C19.7653 16.2481 19.4074 17.2714 18.6883 17.9639C18.2942 18.3434 17.9001 18.5964 17.3746 18.7229C16.9805 18.8494 16.455 18.9759 15.404 19.1024C14.2216 19.1024 13.9589 19.1024 10.9374 19.1024C7.91581 19.1024 7.65307 19.1024 6.47072 19.1024C5.41975 19.1024 4.89426 18.8494 4.50015 18.7229C3.97466 18.4699 3.58054 18.3434 3.18643 17.9639C2.79231 17.5843 2.52957 17.2048 2.3982 16.6988C2.26683 16.3193 2.13545 15.8133 2.00408 14.8012C2.00408 13.6627 2.00408 13.4096 2.00408 10.5C2.00408 7.59036 2.00408 7.33735 2.00408 6.1988C2.00408 6.03536 2.01094 5.88512 2.02298 5.74648C2.10938 4.75193 2.46734 3.7286 3.18643 3.03615C3.58054 2.65663 3.97466 2.40361 4.50015 2.27711C4.89426 2.1506 5.41975 2.0241 6.47072 1.89759C7.65307 1.89759 8.04718 1.89759 10.9374 1.89759ZM10.9374 0C7.91581 0 7.65307 0 6.47072 0C5.28838 0 4.50015 0.253013 3.84329 0.506025C3.18643 0.759037 2.52957 1.13856 1.87271 1.77109C1.21585 2.40362 0.953111 2.90964 0.558996 3.66868C0.296252 4.30121 0.16488 5.06024 0.0335083 6.1988C0.0335083 7.33735 0.0335083 7.71687 0.0335083 10.5C0.0335083 13.4096 0.0335083 13.6627 0.0335083 14.8012C0.0335083 15.9398 0.296252 16.6988 0.558996 17.3313C0.821739 17.9639 1.21585 18.5964 1.87271 19.2289C2.52957 19.8614 3.05506 20.1145 3.84329 20.494C4.50015 20.747 5.28838 20.8735 6.47072 21C7.65307 21 8.04718 21 10.9374 21C13.8275 21 14.2216 21 15.404 21C16.5863 21 17.3746 20.747 18.0314 20.494C18.6883 20.241 19.3451 19.8614 20.002 19.2289C20.6589 18.5964 20.9216 18.0904 21.3157 17.3313C21.5785 16.6988 21.7098 15.9398 21.8412 14.8012C21.8412 13.6627 21.8412 13.2831 21.8412 10.5C21.8412 7.71687 21.8412 7.33735 21.8412 6.1988C21.8412 5.06024 21.5785 4.30121 21.3157 3.66868C21.053 3.03615 20.6589 2.40362 20.002 1.77109C19.3451 1.13856 18.8197 0.885543 18.0314 0.506025C17.3746 0.253013 16.5863 0.126506 15.404 0C14.2216 0 13.9589 0 10.9374 0Z" fill="white"/>
<path d="M10.9374 5.06024C7.78444 5.06024 5.28837 7.46386 5.28837 10.5C5.28837 13.5361 7.78444 15.9398 10.9374 15.9398C14.0903 15.9398 16.5863 13.5361 16.5863 10.5C16.5863 7.46386 14.0903 5.06024 10.9374 5.06024ZM10.9374 14.0422C8.96678 14.0422 7.25895 12.5241 7.25895 10.5C7.25895 8.60241 8.83541 6.95783 10.9374 6.95783C12.9079 6.95783 14.6158 8.4759 14.6158 10.5C14.6158 12.3976 12.9079 14.0422 10.9374 14.0422Z" fill="white"/>
<path d="M16.7177 6.1988C17.4433 6.1988 18.0314 5.63241 18.0314 4.93374C18.0314 4.23506 17.4433 3.66868 16.7177 3.66868C15.9922 3.66868 15.404 4.23506 15.404 4.93374C15.404 5.63241 15.9922 6.1988 16.7177 6.1988Z" fill="white"/>
</svg>
