<svg width="27" height="21" viewBox="0 0 27 21" fill="none" xmlns="http://www.w3.org/2000/svg">
<path d="M26.0335 2.42308C25.0642 2.90769 24.095 3.06923 22.9642 3.23077C24.095 2.58462 24.9027 1.61538 25.2258 0.323077C24.2565 0.96923 23.1258 1.29231 21.8335 1.61538C20.8642 0.646154 19.4104 0 17.9565 0C14.5642 0 11.9796 3.23077 12.7873 6.46154C8.42578 6.3 4.54886 4.2 1.8027 0.969231C0.348855 3.39231 1.15655 6.46154 3.41809 8.07692C2.61039 8.07692 1.8027 7.75385 0.995009 7.43077C0.995009 9.85385 2.77193 12.1154 5.19501 12.7615C4.38732 12.9231 3.57963 13.0846 2.77193 12.9231C3.41809 15.0231 5.35655 16.6385 7.77962 16.6385C5.84116 18.0923 2.93347 18.9 0.187317 18.5769C2.61039 20.0308 5.35655 21 8.26424 21C18.1181 21 23.6104 12.7615 23.2873 5.16923C24.4181 4.52308 25.3873 3.55385 26.0335 2.42308Z" fill="white"/>
</svg>
