<svg width="30" height="21" viewBox="0 0 30 21" fill="none" xmlns="http://www.w3.org/2000/svg">
<path d="M19.9061 18.9688C20.6561 19.9375 21.5624 21 21.5624 21C27.0623 20.8125 29.1873 17.1875 29.1873 17.1875C29.1873 9.12507 25.5936 2.62511 25.5936 2.62511C21.9999 -0.0623763 18.5624 0.000123457 18.5624 0.000123457L18.2186 0.406371C22.4686 1.71886 24.4374 3.59385 24.4374 3.59385C21.8436 2.15636 19.3124 1.43762 16.9374 1.18762C15.1249 0.968868 13.4062 1.03137 11.8749 1.21887C11.7187 1.21887 11.5937 1.25012 11.4374 1.28137C10.5624 1.34387 8.43745 1.68761 5.78122 2.84386C4.84372 3.28135 4.31248 3.5626 4.31248 3.5626C4.31248 3.5626 6.37496 1.59386 10.8749 0.281372L10.6249 0.000123457C10.6249 0.000123457 7.18746 -0.0623763 3.59373 2.62511C3.59373 2.62511 0 9.15632 0 17.1875C0 17.1875 2.09374 20.8125 7.62496 21C7.62496 21 8.56245 19.875 9.31245 18.9375C6.12496 18 4.93747 16 4.93747 16C4.93747 16 5.18747 16.1563 5.62497 16.4063C5.65622 16.4375 5.68747 16.4688 5.71872 16.4688C5.81247 16.5313 5.87497 16.5625 5.93747 16.5938C6.56246 16.9375 7.18746 17.2188 7.74996 17.4375C8.7812 17.8438 9.99994 18.25 11.4374 18.5C13.3124 18.8438 15.4999 18.9688 17.9061 18.5313C19.0936 18.3438 20.3124 18 21.5624 17.4688C22.4374 17.1563 23.4061 16.6563 24.4374 16C24.4374 16 23.1874 18.0625 19.9061 18.9688ZM9.93744 14.875C8.5312 14.875 7.37496 13.625 7.37496 12.0938C7.37496 10.5626 8.49995 9.31257 9.93744 9.31257C11.3749 9.31257 12.4999 10.5626 12.4687 12.0938C12.4687 13.625 11.3437 14.875 9.93744 14.875ZM19.0624 14.875C17.6561 14.875 16.4999 13.625 16.4999 12.0938C16.4999 10.5626 17.6249 9.31257 19.0624 9.31257C20.4999 9.31257 21.6249 10.5626 21.6249 12.0938C21.5936 13.625 20.4686 14.875 19.0624 14.875Z" fill="white"/>
</svg>
